<svg width="52" height="52" viewBox="0 0 52 52" fill="none" xmlns="http://www.w3.org/2000/svg">
<g clip-path="url(#clip0)">
<path d="M47.2147 6.52716H4.78532C2.14673 6.52716 0 8.67379 0 11.3157C0 13.9543 2.14673 16.101 4.78532 16.101H47.2147C49.8533 16.101 52 13.9543 52 11.3157C52 8.67379 49.8533 6.52716 47.2147 6.52716Z" fill="#9C69E2"/>
<path d="M47.2147 21.2131H4.78532C2.14673 21.2131 0 23.3597 0 26.0017C0 28.6403 2.14673 30.787 4.78532 30.787H47.2147C49.8533 30.787 52 28.6403 52 26.0017C52 23.3597 49.8533 21.2131 47.2147 21.2131V21.2131Z" fill="#9C69E2"/>
<path d="M47.2147 35.899H4.78532C2.14673 35.899 0 38.0458 0 40.6876C0 43.3262 2.14673 45.4729 4.78532 45.4729H47.2147C49.8533 45.4729 52 43.3262 52 40.6876C52 38.0458 49.8533 35.899 47.2147 35.899Z" fill="#9C69E2"/>
</g>
<defs>
<clipPath id="clip0">
<rect width="52" height="52" fill="white"/>
</clipPath>
</defs>
</svg>
